<svg width="26" height="29" fill="none" xmlns="http://www.w3.org/2000/svg"><path fill-rule="evenodd" clip-rule="evenodd" d="M12.917 2.583a3.875 3.875 0 100 7.75 3.875 3.875 0 000-7.75zM6.458 6.458a6.458 6.458 0 1112.917 0 6.458 6.458 0 01-12.917 0zM4.88 16.985c2.578-1.155 5.691-1.485 8.037-1.485 2.345 0 5.458.33 8.036 1.485 2.624 1.177 4.88 3.323 4.88 6.91v1.293c0 1.75-1.414 3.229-3.205 3.229H3.206c-1.791 0-3.206-1.48-3.206-3.23v-1.291c0-3.588 2.257-5.734 4.88-6.91zm1.057 2.358c-2.058.922-3.354 2.329-3.354 4.553v1.291c0 .365.3.646.623.646h19.422a.643.643 0 00.622-.645v-1.292c0-2.224-1.296-3.63-3.354-4.553-2.105-.944-4.804-1.26-6.98-1.26-2.175 0-4.874.316-6.979 1.26z" fill="#000"/></svg>